<svg version="1.1" id="Layer_1" xmlns="http://www.w3.org/2000/svg" xmlns:xlink="http://www.w3.org/1999/xlink" x="0px" y="0px"
	 width="100%" viewBox="0 0 500 500" enable-background="new 0 0 500 500" xml:space="preserve">
<path fill="#FEFEFE" opacity="1.000000" stroke="none" 
	d="
M283.000000,501.000000 
	C188.666687,501.000000 94.833382,501.000000 1.000050,501.000000 
	C1.000034,334.333405 1.000034,167.666794 1.000017,1.000140 
	C167.666565,1.000093 334.333130,1.000093 500.999756,1.000047 
	C500.999847,167.666519 500.999847,334.333038 500.999939,500.999786 
	C428.500000,501.000000 356.000000,501.000000 283.000000,501.000000 
M115.381821,372.500183 
	C115.552200,338.190704 115.773575,303.881409 115.875168,269.571716 
	C115.943748,246.411331 116.307114,223.237885 115.680328,200.093521 
	C115.121811,179.470245 113.446236,158.874893 112.122841,138.276276 
	C111.797661,133.214813 110.923820,128.188614 110.302216,123.146202 
	C110.838684,123.037369 111.375153,122.928535 111.911613,122.819702 
	C125.622124,172.592438 139.332626,222.365173 153.002472,271.990295 
	C172.257736,271.990295 190.888504,271.990295 209.775528,271.990295 
	C223.592636,221.361328 237.383057,170.830124 251.173477,120.298920 
	C251.659882,120.387291 252.146286,120.475670 252.632675,120.564041 
	C246.517563,160.997131 247.100006,201.672974 247.394730,243.553238 
	C248.658020,240.672653 249.430115,238.884323 250.225433,237.106384 
	C251.039276,235.287033 251.803635,233.440765 252.713409,231.669846 
	C265.877899,206.044434 287.482758,191.150024 314.583191,183.508926 
	C318.248138,182.475586 319.134583,181.018082 319.124298,177.449463 
	C319.003418,135.459503 319.049133,93.469063 319.035828,51.478748 
	C319.035400,50.048782 318.876190,48.618870 318.794037,47.240005 
	C285.809723,47.240005 253.207062,47.240005 220.478882,47.240005 
	C209.208893,90.605026 197.989197,133.776535 186.769501,176.948044 
	C186.332611,176.889084 185.895706,176.830109 185.458817,176.771149 
	C174.146820,133.604034 162.834824,90.436913 151.537277,47.324951 
	C117.299759,47.324951 83.408455,47.324951 49.435493,47.324951 
	C49.435493,183.504303 49.435493,319.357300 49.435493,455.264008 
	C71.558434,455.264008 93.282471,455.264008 115.381905,455.264008 
	C115.381905,427.776428 115.381905,400.638306 115.381821,372.500183 
M460.301605,276.300232 
	C456.515961,243.076965 439.529816,219.800095 407.570312,209.108734 
	C380.841797,200.167313 353.245148,199.566422 325.743408,205.344559 
	C309.344513,208.789963 294.589996,216.078751 283.253845,228.925369 
	C268.657318,245.466721 265.844543,265.298523 267.504059,286.394653 
	C269.101868,306.707245 277.925293,322.894348 295.534668,333.201172 
	C305.635559,339.113220 316.519623,343.981079 327.543091,347.953888 
	C343.925690,353.858032 360.858124,358.220703 377.337128,363.878448 
	C388.502411,367.711792 395.192993,379.340149 393.826172,391.107819 
	C393.029999,397.962799 390.447021,404.650757 384.142548,407.759888 
	C372.196747,413.651062 359.399506,415.067261 347.149536,408.791351 
	C335.345581,402.743896 329.575684,392.072723 327.964386,379.172241 
	C305.349396,379.172241 282.989838,379.172241 259.415985,379.172241 
	C261.752655,387.727325 263.522186,395.473969 265.985657,402.993317 
	C274.148285,427.908325 290.270538,445.399261 315.102814,454.442657 
	C332.455627,460.762238 350.452515,462.213287 368.720398,460.959503 
	C389.957275,459.501953 410.522766,455.632629 429.446655,444.998169 
	C458.999146,428.390900 471.506317,395.630463 465.158447,365.563202 
	C460.261017,342.365906 446.884552,324.971985 425.635773,315.268188 
	C406.526978,306.541595 386.216125,300.467102 366.529053,292.976868 
	C358.954987,290.095184 351.334167,287.077850 344.293854,283.126068 
	C337.555359,279.343658 335.322113,272.817261 336.952118,265.081573 
	C338.504028,257.716736 342.614868,252.885635 350.012238,250.967896 
	C369.888245,245.815079 388.696289,256.897766 394.571136,277.513000 
	C408.466339,277.513000 422.451294,277.560303 436.435760,277.494446 
	C444.242676,277.457703 452.048706,277.232971 460.301605,276.300232 
z"/>
<path fill="#282828" opacity="1.000000" stroke="none" 
	d="
M115.381866,373.000183 
	C115.381905,400.638306 115.381905,427.776428 115.381905,455.264008 
	C93.282471,455.264008 71.558434,455.264008 49.435493,455.264008 
	C49.435493,319.357300 49.435493,183.504303 49.435493,47.324951 
	C83.408455,47.324951 117.299759,47.324951 151.537277,47.324951 
	C162.834824,90.436913 174.146820,133.604034 185.458817,176.771149 
	C185.895706,176.830109 186.332611,176.889084 186.769501,176.948044 
	C197.989197,133.776535 209.208893,90.605026 220.478882,47.240005 
	C253.207062,47.240005 285.809723,47.240005 318.794037,47.240005 
	C318.876190,48.618870 319.035400,50.048782 319.035828,51.478748 
	C319.049133,93.469063 319.003418,135.459503 319.124298,177.449463 
	C319.134583,181.018082 318.248138,182.475586 314.583191,183.508926 
	C287.482758,191.150024 265.877899,206.044434 252.713409,231.669846 
	C251.803635,233.440765 251.039276,235.287033 250.225433,237.106384 
	C249.430115,238.884323 248.658020,240.672653 247.394730,243.553238 
	C247.100006,201.672974 246.517563,160.997131 252.632675,120.564041 
	C252.146286,120.475670 251.659882,120.387291 251.173477,120.298920 
	C237.383057,170.830124 223.592636,221.361328 209.775528,271.990295 
	C190.888504,271.990295 172.257736,271.990295 153.002472,271.990295 
	C139.332626,222.365173 125.622124,172.592438 111.911613,122.819702 
	C111.375153,122.928535 110.838684,123.037369 110.302216,123.146202 
	C110.923820,128.188614 111.797661,133.214813 112.122841,138.276276 
	C113.446236,158.874893 115.121811,179.470245 115.680328,200.093521 
	C116.307114,223.237885 115.943748,246.411331 115.875168,269.571716 
	C115.773575,303.881409 115.552200,338.190704 115.381866,373.000183 
z"/>
<path fill="#282828" opacity="1.000000" stroke="none" 
	d="
M460.078369,276.696594 
	C452.048706,277.232971 444.242676,277.457703 436.435760,277.494446 
	C422.451294,277.560303 408.466339,277.513000 394.571136,277.513000 
	C388.696289,256.897766 369.888245,245.815079 350.012238,250.967896 
	C342.614868,252.885635 338.504028,257.716736 336.952118,265.081573 
	C335.322113,272.817261 337.555359,279.343658 344.293854,283.126068 
	C351.334167,287.077850 358.954987,290.095184 366.529053,292.976868 
	C386.216125,300.467102 406.526978,306.541595 425.635773,315.268188 
	C446.884552,324.971985 460.261017,342.365906 465.158447,365.563202 
	C471.506317,395.630463 458.999146,428.390900 429.446655,444.998169 
	C410.522766,455.632629 389.957275,459.501953 368.720398,460.959503 
	C350.452515,462.213287 332.455627,460.762238 315.102814,454.442657 
	C290.270538,445.399261 274.148285,427.908325 265.985657,402.993317 
	C263.522186,395.473969 261.752655,387.727325 259.415985,379.172241 
	C282.989838,379.172241 305.349396,379.172241 327.964386,379.172241 
	C329.575684,392.072723 335.345581,402.743896 347.149536,408.791351 
	C359.399506,415.067261 372.196747,413.651062 384.142548,407.759888 
	C390.447021,404.650757 393.029999,397.962799 393.826172,391.107819 
	C395.192993,379.340149 388.502411,367.711792 377.337128,363.878448 
	C360.858124,358.220703 343.925690,353.858032 327.543091,347.953888 
	C316.519623,343.981079 305.635559,339.113220 295.534668,333.201172 
	C277.925293,322.894348 269.101868,306.707245 267.504059,286.394653 
	C265.844543,265.298523 268.657318,245.466721 283.253845,228.925369 
	C294.589996,216.078751 309.344513,208.789963 325.743408,205.344559 
	C353.245148,199.566422 380.841797,200.167313 407.570312,209.108734 
	C439.529816,219.800095 456.515961,243.076965 460.078369,276.696594 
z"/>
</svg>