<svg version="1.1" id="Layer_1" xmlns="http://www.w3.org/2000/svg" xmlns:xlink="http://www.w3.org/1999/xlink" x="0px" y="0px"
	 width="100%" viewBox="0 0 500 500" enable-background="new 0 0 500 500" xml:space="preserve">
<path fill="#FFFFFF" opacity="1.000000" stroke="none" 
	d="
M275.000000,501.000000 
	C183.333359,501.000000 92.166710,501.000000 1.000049,501.000000 
	C1.000033,334.333405 1.000033,167.666794 1.000016,1.000138 
	C167.666565,1.000092 334.333130,1.000092 500.999756,1.000046 
	C500.999847,167.666519 500.999847,334.333038 500.999939,500.999786 
	C425.833344,501.000000 350.666656,501.000000 275.000000,501.000000 
M120.139610,440.500000 
	C120.319122,386.532471 120.536201,332.565033 120.661545,278.597382 
	C120.719986,253.437973 121.144867,228.261871 120.392097,203.123627 
	C119.774872,182.511826 117.685448,161.943024 116.187881,141.359573 
	C115.898697,137.384918 115.328369,133.430710 114.887733,129.467072 
	C116.241684,130.324097 116.638741,131.355652 116.930763,132.416107 
	C122.621506,153.081802 128.293579,173.752625 133.982620,194.418793 
	C141.568283,221.974701 149.238388,249.507812 156.659164,277.108002 
	C157.529816,280.346222 158.782990,281.417236 162.026230,281.234039 
	C166.677017,280.971344 171.353683,281.167053 176.019302,281.167053 
	C188.820251,281.167084 201.621201,281.167084 214.528000,281.167084 
	C228.411926,230.212296 242.188141,179.652847 255.964340,129.093414 
	C256.459869,129.186569 256.955383,129.279724 257.450897,129.372879 
	C249.750854,179.697861 252.697617,230.318176 252.072372,280.937744 
	C276.298218,280.937744 299.890076,280.937744 323.578430,280.937744 
	C323.578430,205.855911 323.578430,131.003922 323.578430,56.204536 
	C290.591736,56.204536 257.962402,56.204536 225.287689,56.204536 
	C214.012756,99.591125 202.784668,142.797394 191.556580,186.003647 
	C191.126434,185.939224 190.696274,185.874802 190.266129,185.810379 
	C178.945816,142.614700 167.625504,99.419022 156.333923,56.332935 
	C122.035835,56.332935 88.147888,56.332935 54.320389,56.332935 
	C54.320389,192.538757 54.320389,328.410767 54.320389,464.284760 
	C76.380180,464.284760 98.115814,464.284760 120.139610,464.284760 
	C120.139610,456.472107 120.139610,448.986053 120.139610,440.500000 
M372.974731,289.500000 
	C372.648865,299.641296 372.923584,309.847382 371.838776,319.906830 
	C370.599091,331.402618 363.716125,337.262482 352.310913,338.094421 
	C349.835022,338.275055 347.320557,338.247009 344.844666,338.051514 
	C334.525757,337.236694 327.902039,331.386932 326.113342,321.212494 
	C325.286835,316.511261 325.053864,311.705658 324.531555,306.755859 
	C301.434509,306.755859 278.347443,306.755859 254.671555,306.755859 
	C255.147339,313.515930 255.289917,320.009247 256.109863,326.415894 
	C259.601105,353.694611 272.487427,374.664948 298.775452,384.927826 
	C331.246613,397.604584 364.496552,397.549042 397.610657,387.316071 
	C418.254364,380.936737 433.276062,367.800842 441.318298,347.341064 
	C446.464752,334.248199 447.655304,320.506714 447.678619,306.640137 
	C447.759033,258.818359 447.709839,210.996353 447.710022,163.174423 
	C447.710022,161.551254 447.709991,159.928070 447.709991,158.200134 
	C422.518829,158.200134 397.831329,158.200134 372.974731,158.200134 
	C372.974731,201.878387 372.974731,245.189194 372.974731,289.500000 
M397.500000,59.274216 
	C389.413635,59.274216 381.327301,59.274216 373.316528,59.274216 
	C373.316528,84.282272 373.316528,108.496635 373.316528,132.671539 
	C397.886414,132.671539 422.090485,132.671539 446.287720,132.671539 
	C446.476837,131.854675 446.681763,131.381516 446.682281,130.908127 
	C446.707275,108.267967 446.665863,85.627563 446.777130,62.987888 
	C446.793518,59.647419 445.175568,59.225883 442.448639,59.239727 
	C427.799438,59.314110 413.149597,59.274712 397.500000,59.274216 
M120.500114,26.346302 
	C98.073364,26.346302 75.646614,26.346302 53.074860,26.346302 
	C53.074860,28.600138 53.074860,30.362112 53.074860,32.176678 
	C87.487846,32.176678 121.653122,32.176678 156.124222,32.176678 
	C156.016602,30.080326 155.927841,28.351135 155.824936,26.346394 
	C144.088272,26.346394 132.794205,26.346394 120.500114,26.346302 
z"/>
<path fill="#282828" opacity="1.000000" stroke="none" 
	d="
M120.139610,441.000000 
	C120.139610,448.986053 120.139610,456.472107 120.139610,464.284760 
	C98.115814,464.284760 76.380180,464.284760 54.320389,464.284760 
	C54.320389,328.410767 54.320389,192.538757 54.320389,56.332935 
	C88.147888,56.332935 122.035835,56.332935 156.333923,56.332935 
	C167.625504,99.419022 178.945816,142.614700 190.266129,185.810379 
	C190.696274,185.874802 191.126434,185.939224 191.556580,186.003647 
	C202.784668,142.797394 214.012756,99.591125 225.287689,56.204536 
	C257.962402,56.204536 290.591736,56.204536 323.578430,56.204536 
	C323.578430,131.003922 323.578430,205.855911 323.578430,280.937744 
	C299.890076,280.937744 276.298218,280.937744 252.072372,280.937744 
	C252.697617,230.318176 249.750854,179.697861 257.450897,129.372879 
	C256.955383,129.279724 256.459869,129.186569 255.964340,129.093414 
	C242.188141,179.652847 228.411926,230.212296 214.528000,281.167084 
	C201.621201,281.167084 188.820251,281.167084 176.019302,281.167053 
	C171.353683,281.167053 166.677017,280.971344 162.026230,281.234039 
	C158.782990,281.417236 157.529816,280.346222 156.659164,277.108002 
	C149.238388,249.507812 141.568283,221.974701 133.982620,194.418793 
	C128.293579,173.752625 122.621506,153.081802 116.930763,132.416107 
	C116.638741,131.355652 116.241684,130.324097 114.887733,129.467072 
	C115.328369,133.430710 115.898697,137.384918 116.187881,141.359573 
	C117.685448,161.943024 119.774872,182.511826 120.392097,203.123627 
	C121.144867,228.261871 120.719986,253.437973 120.661545,278.597382 
	C120.536201,332.565033 120.319122,386.532471 120.139610,441.000000 
z"/>
<path fill="#282828" opacity="1.000000" stroke="none" 
	d="
M372.974731,289.000000 
	C372.974731,245.189194 372.974731,201.878387 372.974731,158.200134 
	C397.831329,158.200134 422.518829,158.200134 447.709991,158.200134 
	C447.709991,159.928070 447.710022,161.551254 447.710022,163.174423 
	C447.709839,210.996353 447.759033,258.818359 447.678619,306.640137 
	C447.655304,320.506714 446.464752,334.248199 441.318298,347.341064 
	C433.276062,367.800842 418.254364,380.936737 397.610657,387.316071 
	C364.496552,397.549042 331.246613,397.604584 298.775452,384.927826 
	C272.487427,374.664948 259.601105,353.694611 256.109863,326.415894 
	C255.289917,320.009247 255.147339,313.515930 254.671555,306.755859 
	C278.347443,306.755859 301.434509,306.755859 324.531555,306.755859 
	C325.053864,311.705658 325.286835,316.511261 326.113342,321.212494 
	C327.902039,331.386932 334.525757,337.236694 344.844666,338.051514 
	C347.320557,338.247009 349.835022,338.275055 352.310913,338.094421 
	C363.716125,337.262482 370.599091,331.402618 371.838776,319.906830 
	C372.923584,309.847382 372.648865,299.641296 372.974731,289.000000 
z"/>
<path fill="#FF924F" opacity="1.000000" stroke="none" 
	d="
M398.000000,59.274406 
	C413.149597,59.274712 427.799438,59.314110 442.448639,59.239727 
	C445.175568,59.225883 446.793518,59.647419 446.777130,62.987888 
	C446.665863,85.627563 446.707275,108.267967 446.682281,130.908127 
	C446.681763,131.381516 446.476837,131.854675 446.287720,132.671539 
	C422.090485,132.671539 397.886414,132.671539 373.316528,132.671539 
	C373.316528,108.496635 373.316528,84.282272 373.316528,59.274216 
	C381.327301,59.274216 389.413635,59.274216 398.000000,59.274406 
z"/>
<path fill="#383838" opacity="1.000000" stroke="none" 
	d="
M121.000122,26.346348 
	C132.794205,26.346394 144.088272,26.346394 155.824936,26.346394 
	C155.927841,28.351135 156.016602,30.080326 156.124222,32.176678 
	C121.653122,32.176678 87.487846,32.176678 53.074860,32.176678 
	C53.074860,30.362112 53.074860,28.600138 53.074860,26.346302 
	C75.646614,26.346302 98.073364,26.346302 121.000122,26.346348 
z"/>
</svg>